<?xml version="1.0" encoding="UTF-8"?>
<svg width="1200pt" height="1200pt" version="1.1" viewBox="0 0 1200 1200" xmlns="http://www.w3.org/2000/svg">
 <path d="m507.93 294.49c43.957-0.16797 79.547-35.746 79.402-79.391 0.15625-44.199-35.449-79.789-79.402-79.969-43.859 0.17969-79.465 35.773-79.391 79.969-0.074218 43.629 35.527 79.223 79.391 79.391z" fill="#3b5997"/>
 <path d="m1059.2 221.84h-184.71c-38.207-0.26562-87.371 15.371-116.57 44.484l-171.18 171.19v-50.113c-0.070313-106.8-157.5-105.64-157.68 0v204.41h0.5625l-148.66 148.66c-14.172 14.051-15.887 14.641-43.344 14.641-0.12109 0.035157-91.223 0-91.223 0-91.32 0-146.2 82.246-146.43 152.04 0.22656 69.637 55.105 157.75 154.86 157.69 0 0 123.62 0.070312 161.61 0 38.496 0.070312 84.84-14.555 123.34-50.699l474.13-472.45c9.9727-9.2266 15.613-12.012 33.227-11.832 0 0 65.184-0.19141 117.12 0 56.184-0.19141 135.95-64.094 135.73-155.96 0.21484-91.344-80.148-152.11-140.79-152.05zm-7.9062 228.07h-100.2c-42.422-0.035156-61.211 5.9023-85.621 30.395l-478.07 477.54c-19.094 19.609-43.621 27.277-74.891 27.012h-157.68c-40.621 0.26562-76.285-33.973-76.02-78.828-0.26562-45.121 33.758-70.297 68.711-70.402h108.12c31.738 0.10938 52.453-8.8906 70.367-27l485.99-485.99c20.039-19.859 39.77-22.344 73.754-22.512h166.12c40.754 0.16797 67.98 45.406 68.16 72.648-0.19922 26.711-19.52 77.098-68.742 77.133z" fill="#3b5997"/>
</svg>
